<svg width="220" height="53" viewBox="0 0 220 53" fill="none" xmlns="http://www.w3.org/2000/svg">
<g clip-path="url(#clip0_14_33)">
<path d="M10.2342 53H0L19.692 0.84462H29.291L48.983 53H38.7488L34.9374 42.0199H14.0456L10.2342 53ZM32.3965 34.1368L24.4915 10.9801L16.5865 34.1368H32.3965Z" fill="#37AAE1"/>
<path d="M53.7822 38.2895C53.7116 42.4422 56.2525 47.51 64.5811 47.51C73.6154 47.51 74.3918 41.9495 74.3918 39.838C74.3918 34.9814 69.804 33.6441 66.275 32.8699C64.8634 32.5883 63.4518 32.3068 61.9696 32.0252C57.8053 31.1806 51.9471 29.9137 51.9471 23.7198C51.9471 19.7078 54.2763 14.3586 64.087 14.3586C72.839 14.3586 75.4505 19.8486 75.8034 23.8606H73.4037C73.1919 21.6082 71.8509 16.3997 63.9458 16.3997C57.8759 16.3997 54.3469 19.3559 54.3469 23.579C54.3469 28.4356 58.2288 29.2802 64.0164 30.336C68.1101 31.0398 76.7209 32.0252 76.7209 39.9788C76.7209 43.7092 75.0976 49.6215 64.4399 49.6215C53.9234 49.6215 51.2413 43.2869 51.3119 38.4303H53.7822V38.2895Z" fill="white"/>
<path d="M75.0273 17.3147V15.344H100.225V17.3147H88.7906V48.7065H86.4614V17.3147H75.0273Z" fill="white"/>
<path d="M102.06 15.344H115.47C119.282 15.344 126.622 15.7663 126.622 23.7902C126.622 28.0133 124.434 31.251 120.623 32.2364V32.3772C124.999 33.5033 125.281 37.0226 125.422 39.7676C125.775 45.4688 125.563 46.7357 126.834 48.7065H124.222C123.234 46.7357 123.375 45.6096 123.022 39.7676C122.811 36.741 122.458 33.2922 116.247 33.2922H104.318V48.7065H101.989V15.344H102.06ZM104.389 31.3214H116.458C119.07 31.3214 124.222 30.336 124.222 23.9309C124.222 17.5259 118.293 17.3851 115.47 17.3851H104.318V31.3214H104.389Z" fill="white"/>
<path d="M143.985 14.3586C153.866 14.3586 159.513 21.0452 159.513 32.0252C159.513 43.0053 153.795 49.6919 143.985 49.6919C134.103 49.6919 128.457 43.0053 128.457 32.0252C128.457 21.0452 134.103 14.3586 143.985 14.3586ZM143.985 47.7211C150.69 47.7211 157.113 43.7092 157.113 32.0252C157.113 20.3413 150.69 16.3294 143.985 16.3294C137.28 16.3294 130.857 20.3413 130.857 32.0252C130.857 43.7092 137.28 47.7211 143.985 47.7211Z" fill="white"/>
<path d="M164.664 48.7065H162.335V15.344H165.229L185.485 45.4688V15.344H187.744V48.7065H184.921L164.664 18.5113V48.7065Z" fill="white"/>
<path d="M190.145 15.344V48.7065H192.403V15.344H190.145Z" fill="#37AAE1"/>
<path d="M195.226 23.6494C195.226 29.9137 201.084 31.1102 205.249 31.9548C206.66 32.2364 208.072 32.5179 209.554 32.7995C213.083 33.5737 217.671 34.911 217.671 39.7676C217.671 41.8791 216.824 47.4396 207.86 47.4396C199.532 47.4396 196.991 42.3718 197.061 38.2191H194.661C194.591 43.0757 197.344 49.4104 207.789 49.4104C218.447 49.4104 220.071 43.498 220.071 39.7676C220.071 31.8141 211.46 30.8287 207.366 30.1248C201.578 29.0691 197.696 28.2244 197.696 23.3679C197.696 19.1448 201.225 16.259 207.295 16.259C215.2 16.259 216.541 21.4675 216.753 23.7198H219.153C218.8 19.7078 216.189 14.2178 207.437 14.2178C197.555 14.2882 195.226 19.6374 195.226 23.6494Z" fill="#37AAE1"/>
<path opacity="0.3" d="M34.5137 0H112.505L53.9939 52.2961L34.5137 0Z" fill="white"/>
</g>
<defs>
<clipPath id="clip0_14_33">
<rect width="220" height="53" fill="white"/>
</clipPath>
</defs>
</svg>
