<svg width="237" height="65" viewBox="0 0 237 65" fill="none" xmlns="http://www.w3.org/2000/svg">
<g clip-path="url(#clip0_26_276)">
<path d="M116.109 51.9517H117.598L125.115 62.2973V51.9517H126.381V64.5302H125.19L117.449 53.8868V64.5302H116.109V51.9517Z" fill="white"/>
<path d="M129.581 51.9517H137.843V53.217H130.921V57.385H137.694V58.6503H130.921V63.2649H137.917V64.5302H129.581V51.9517Z" fill="white"/>
<path d="M144.542 53.217H139.853V51.9517H150.645V53.217H145.881V64.5302H144.542V53.217Z" fill="white"/>
<path d="M152.208 51.9517H153.622L156.897 62.3718L160.246 51.9517H161.437L164.787 62.3718L168.061 51.9517H169.401L165.382 64.6046H164.191L160.842 54.1845L157.418 64.6046H156.302L152.208 51.9517Z" fill="white"/>
<path d="M170.592 58.2036C170.592 53.7379 172.899 51.7283 176.918 51.7283C180.937 51.7283 183.245 53.7379 183.245 58.2036C183.245 62.6694 180.937 64.679 176.918 64.679C172.825 64.679 170.592 62.7438 170.592 58.2036ZM181.831 58.2781C181.831 54.9287 180.268 53.068 176.844 53.068C173.42 53.068 171.857 54.9287 171.857 58.2781C171.857 61.7018 173.42 63.4881 176.844 63.4881C180.268 63.4881 181.831 61.6274 181.831 58.2781Z" fill="white"/>
<path d="M190.986 59.3946H187.265V64.5302H185.925V51.9517H191.358C194.261 51.9517 195.601 53.1425 195.601 55.5987C195.601 57.7571 194.559 59.0224 192.4 59.3202L195.452 64.4558H194.038L190.986 59.3946ZM191.358 58.2037C193.144 58.2037 194.261 57.6827 194.261 55.6731C194.261 53.738 193.219 53.217 191.358 53.217H187.265V58.2037H191.358Z" fill="white"/>
<path d="M202.225 57.8316L199.694 60.5855V64.5302H198.429V51.9517H199.694V58.8736L206.02 51.9517H207.584L203.118 56.864L208.179 64.5302H206.69L202.225 57.8316Z" fill="white"/>
<path d="M209.295 63.2648L209.965 62.2228C211.453 63.1904 212.942 63.4881 214.431 63.4881C217.036 63.4881 218.152 62.7438 218.152 61.0319C218.152 59.2456 216.663 59.0223 214.431 58.5758C211.751 58.1292 209.89 57.6082 209.89 55.0776C209.89 52.6214 211.453 51.7283 214.431 51.7283C216.366 51.7283 217.78 52.1748 218.822 52.8447L218.078 53.9611C217.184 53.3657 215.845 52.9936 214.431 52.9936C212.198 52.9936 211.23 53.589 211.23 55.0776C211.23 56.6406 212.495 56.9383 214.728 57.3849C217.482 57.9059 219.417 58.278 219.417 60.9575C219.417 63.4137 217.854 64.679 214.431 64.679C212.644 64.679 210.932 64.3068 209.295 63.2648Z" fill="white"/>
<path d="M232.591 0.148926C214.951 0.148926 214.207 8.03843 214.207 19.2028V46.5184H218.375V19.2028C218.375 10.7923 218.077 4.09368 232.591 4.09368C234.154 4.09368 235.568 4.16811 236.759 4.31697V0.372214C235.494 0.223355 234.154 0.148926 232.591 0.148926Z" fill="white"/>
<path d="M27.0918 28.7297V1.11646H31.3343V28.8786C31.3343 36.8425 31.2598 43.6156 45.848 43.6156C60.3617 43.6156 60.064 36.9169 60.064 28.5064V1.11646H64.232V28.432C64.232 39.5964 63.4877 47.4859 45.848 47.4859C28.2082 47.4859 27.0918 39.5964 27.0918 28.7297Z" fill="white"/>
<path d="M108.444 18.8307V46.5184H104.201V18.7562C104.201 10.7923 104.276 4.01925 89.6877 4.01925C75.174 4.01925 75.4717 10.7179 75.4717 19.1284V46.4439H71.3037V19.2028C71.3037 8.03843 72.048 0.148926 89.6877 0.148926C107.327 0.148926 108.444 8.03843 108.444 18.8307Z" fill="white"/>
<path d="M120.203 1.19092H116.109V46.5928H120.203V1.19092Z" fill="white"/>
<path d="M127.795 1.19092H149.007C159.576 1.19092 164.34 6.40097 164.34 15.7046C164.34 25.0827 159.651 30.7393 149.007 30.7393H131.889V46.5184H127.795V1.19092ZM149.156 26.7202C156.525 26.7202 160.172 23.1476 160.172 15.9279C160.172 8.70828 156.227 5.28453 149.007 5.28453H131.963V26.7202H149.156Z" fill="white"/>
<path d="M169.104 23.6685C169.104 10.2712 172.899 0 190.018 0C207.732 0 208.328 11.9087 208.253 24.4128H173.197C173.272 35.5028 176.025 43.69 190.39 43.69C198.057 43.69 201.555 41.606 205.276 38.8521L207.583 41.9037C203.415 44.9553 198.503 47.4115 190.39 47.4115C172.453 47.4859 169.104 37.0658 169.104 23.6685ZM173.272 20.6169H204.16C203.713 11.5365 203.192 3.79589 189.944 3.79589C177.291 3.79589 173.793 10.7178 173.272 20.6169Z" fill="white"/>
<path d="M1.56301 56.4174C19.2028 56.4174 19.947 48.5279 19.947 37.3635V1.11646H15.779V37.3635C15.779 45.774 16.0767 52.4727 1.56301 52.4727C1.04201 52.4727 0.521005 52.4727 0 52.4727V56.4174C0.521005 56.4174 1.04201 56.4174 1.56301 56.4174Z" fill="white"/>
<path d="M227.531 46.7415C225.968 46.7415 224.628 45.4762 224.628 43.8388C224.628 42.2758 225.893 40.936 227.531 40.936C229.094 40.936 230.359 42.2013 230.359 43.8388C230.359 45.4762 229.094 46.7415 227.531 46.7415ZM227.531 41.3826C226.117 41.3826 225 42.4991 225 43.9132C225 45.2529 226.117 46.4438 227.531 46.4438C228.87 46.4438 230.061 45.3274 230.061 43.9132C229.987 42.4991 228.87 41.3826 227.531 41.3826Z" fill="white"/>
<path d="M227.68 44.2855H226.786V45.5508H226.34V42.2759H227.828C228.647 42.2759 229.019 42.648 229.019 43.2435C229.019 43.7645 228.796 44.1366 228.201 44.211L228.945 45.4763H228.498L227.68 44.2855ZM227.754 43.8389C228.201 43.8389 228.498 43.69 228.498 43.2435C228.498 42.7969 228.275 42.648 227.754 42.648H226.712V43.8389H227.754Z" fill="white"/>
</g>
<defs>
<clipPath id="clip0_26_276">
<rect width="236.834" height="64.679" fill="white"/>
</clipPath>
</defs>
</svg>
