<svg width="273" height="65" viewBox="0 0 273 65" fill="none" xmlns="http://www.w3.org/2000/svg">
<g clip-path="url(#clip0_26_280)">
<path d="M0.0556641 47.1091C0.0556641 51.545 0.0556641 54.0231 1.66644 55.6339C3.27723 57.2447 5.75535 57.2447 10.1912 57.2447H40.6473C45.0832 57.2447 47.5613 57.2447 49.1721 55.6339C50.7829 54.0231 50.7829 51.545 50.7829 47.1091V16.6778C50.7829 12.2419 50.7829 9.7638 49.1721 8.15302C47.5613 6.54224 45.0832 6.54224 40.6473 6.54224H10.216C5.78013 6.54224 3.30201 6.54224 1.69123 8.15302C0.0804453 9.7638 0.0804453 12.2419 0.0804453 16.6778V47.1091H0.0556641Z" fill="white"/>
<path d="M162.397 23.4431L157.292 6.51747H161.976L165.445 19.2798H166.164L169.633 6.51747H174.317L169.212 23.4431H162.397ZM90.5564 14.9927C90.5564 9.9125 94.4719 6.19531 99.329 6.19531C104.211 6.19531 108.126 9.9125 108.126 14.9927C108.126 20.0728 104.26 23.79 99.329 23.79C94.4223 23.79 90.5564 20.048 90.5564 14.9927ZM95.0666 14.9927C95.0666 17.669 96.8756 19.6267 99.3538 19.6267C101.906 19.6267 103.666 17.7186 103.666 14.9927C103.666 12.3163 101.857 10.3586 99.3538 10.3586C96.8509 10.3586 95.0666 12.3163 95.0666 14.9927ZM132.387 0H127.902V4.16325H132.387V0ZM132.387 6.51747H127.902V23.4431H132.387V6.51747ZM155.112 0H150.626V4.16325H155.112V0ZM155.112 6.51747H150.626V23.4431H155.112V6.51747ZM174.763 14.9927C174.763 9.9125 178.679 6.19531 183.536 6.19531C188.418 6.19531 192.333 9.9125 192.333 14.9927C192.333 15.4387 192.283 15.8848 192.234 16.3061V16.3308H187.773H179.323C179.769 18.5364 181.404 20.048 183.66 20.048C185.097 20.048 186.509 19.4037 187.228 18.2886H192.011C190.871 21.6588 187.451 23.8148 183.66 23.8148C178.555 23.79 174.763 20.048 174.763 14.9927ZM179.472 13.1093H187.6C186.98 11.2259 185.469 9.96206 183.511 9.96206C181.603 9.96206 180.091 11.2011 179.472 13.1093ZM75.6133 29.9853H71.1279V6.51747H75.6133V8.15303H76.0098C77.125 6.88919 78.8845 6.19531 80.7926 6.19531C85.4019 6.19531 88.5491 9.9125 88.5491 14.9927C88.5491 20.0728 85.4019 23.79 80.7926 23.79C78.7358 23.79 77.0506 22.9722 76.0098 21.8323H75.6133V29.9853ZM79.8014 10.3586C77.348 10.3586 75.6133 12.3163 75.6133 14.9927C75.6133 17.669 77.3728 19.6267 79.8014 19.6267C82.2547 19.6267 84.039 17.669 84.039 14.9927C84.039 12.3163 82.2547 10.3586 79.8014 10.3586ZM147.752 19.2798H144.233C141.878 19.2798 140.813 18.3133 140.813 15.86V10.6807H147.727V6.51747H140.813V0H136.327V16.4052C136.327 20.9897 138.607 23.4678 143.39 23.4678H147.752V19.2798ZM101.881 48.7943C101.881 49.2403 101.832 49.6864 101.782 50.1077V50.1325H97.3217H88.8713C89.3174 52.338 90.9529 53.8496 93.208 53.8496C94.6453 53.8496 96.0579 53.2053 96.7765 52.0902H101.559C100.419 55.4604 96.9995 57.6164 93.208 57.6164C88.0783 57.6164 84.2868 53.8744 84.2868 48.819C84.2868 43.7389 88.2022 40.0217 93.0593 40.0217C97.966 39.9969 101.881 43.7141 101.881 48.7943ZM89.0448 46.9109H97.173C96.5535 45.0275 95.0418 43.7637 93.0841 43.7637C91.1512 43.7885 89.6395 45.0275 89.0448 46.9109ZM133.304 39.9969C131.371 39.9969 129.661 40.666 128.521 41.9546H128.174V33.8264H123.689V57.2942H128.174V47.7039C128.174 45.5975 129.661 44.1602 131.792 44.1602C133.899 44.1602 135.41 45.5975 135.41 47.7039V57.2695H139.896V47.0348C139.896 42.8716 137.195 39.9969 133.304 39.9969ZM112.76 53.4284C110.282 53.4284 108.548 51.4706 108.548 48.7943C108.548 46.1179 110.282 44.1602 112.76 44.1602C114.619 44.1602 116.007 45.0771 116.502 46.787H121.136C120.542 42.6485 116.973 39.9721 112.736 39.9721C107.879 39.9721 104.037 43.6893 104.037 48.7695C104.037 53.8249 107.829 57.5668 112.736 57.5668C117.023 57.5668 120.542 54.6674 121.136 50.6281H116.502C116.106 52.3628 114.644 53.4284 112.76 53.4284ZM75.6133 33.8264H71.1279V50.2316C71.1279 54.8161 73.4078 57.2942 78.1906 57.2942H82.5521V53.131H79.0332C76.6789 53.131 75.6133 52.1645 75.6133 49.7112V44.5319H82.5273V40.3686H75.6133V33.8264ZM179.719 48.7943C179.719 53.8744 175.853 57.5916 170.922 57.5916C166.015 57.5916 162.149 53.8496 162.149 48.7943C162.149 43.7141 166.065 39.9969 170.922 39.9969C175.804 39.9969 179.719 43.7141 179.719 48.7943ZM175.234 48.7943C175.234 46.1179 173.425 44.1602 170.922 44.1602C168.444 44.1602 166.635 46.1179 166.635 48.7943C166.635 51.4706 168.444 53.4284 170.922 53.4284C173.474 53.4284 175.234 51.5202 175.234 48.7943ZM206.904 48.7943C206.904 53.8744 203.038 57.5916 198.107 57.5916C193.2 57.5916 189.334 53.8496 189.334 48.7943C189.334 43.7141 193.25 39.9969 198.107 39.9969C202.964 39.9969 206.904 43.7141 206.904 48.7943ZM202.419 48.7943C202.419 46.1179 200.61 44.1602 198.107 44.1602C195.629 44.1602 193.82 46.1179 193.82 48.7943C193.82 51.4706 195.629 53.4284 198.107 53.4284C200.635 53.4284 202.419 51.5202 202.419 48.7943ZM230.447 37.9896H234.932V33.8264H230.447V37.9896ZM230.447 57.2695H234.932V40.3439H230.447V57.2695ZM255.253 48.7943C255.253 49.2403 255.203 49.6864 255.153 50.1077V50.1325H250.693H242.267C242.713 52.338 244.349 53.8496 246.604 53.8496C248.041 53.8496 249.454 53.2053 250.172 52.0902H254.955C253.815 55.4604 250.395 57.6164 246.604 57.6164C241.474 57.6164 237.683 53.8744 237.683 48.819C237.683 43.7389 241.598 40.0217 246.455 40.0217C251.337 39.9969 255.253 43.7141 255.253 48.7943ZM242.416 46.9109H250.544C249.925 45.0275 248.413 43.7637 246.455 43.7637C244.522 43.7885 243.011 45.0275 242.416 46.9109ZM182.272 57.2695H186.757V33.8264H182.272V57.2695ZM153.154 39.9969C151.221 39.9969 149.511 40.666 148.371 41.9546H148.024V40.3191H143.539V57.2447H148.024V47.7039C148.024 45.5975 149.511 44.1602 151.642 44.1602C153.773 44.1602 155.26 45.5975 155.26 47.7039V57.2695H159.746V47.0348C159.746 42.8716 157.02 39.9969 153.154 39.9969ZM221.996 40.3439H226.482V57.6164C226.482 62.2009 224.202 64.679 219.419 64.679H211.638V60.5158H218.576C220.931 60.5158 221.996 59.5493 221.996 57.096V55.3613H221.6C220.559 56.4765 218.874 57.2942 216.817 57.2942C212.208 57.2942 209.06 53.6514 209.06 48.6704C209.06 43.6646 212.208 40.0465 216.817 40.0465C218.725 40.0465 220.484 40.7404 221.6 41.9794C221.6 41.9794 221.624 42.0042 221.624 42.029H221.971V40.3439H221.996ZM217.808 53.1805C220.261 53.1805 221.996 51.2724 221.996 48.6456C221.996 46.0188 220.237 44.1106 217.808 44.1106C215.355 44.1106 213.571 46.0188 213.571 48.6456C213.571 51.2724 215.355 53.1805 217.808 53.1805ZM266.9 47.2083L264.075 46.787C262.513 46.564 261.894 46.1427 261.894 45.3497C261.894 44.3089 262.687 43.6398 264.595 43.6398C266.503 43.6398 267.544 44.5319 267.544 45.647H272.029C272.029 43.4663 269.774 40.0217 264.595 40.0217C259.936 40.0217 257.532 42.5246 257.532 45.3249C257.532 48.1252 259.589 49.6616 263.083 50.2068L265.76 50.6281C267.618 50.9255 267.99 51.5698 267.99 52.3875C267.99 53.2053 267.197 53.9983 264.967 53.9983C262.737 53.9983 261.795 52.8832 261.795 51.9911H257.309C257.309 53.2301 258.672 57.6164 264.967 57.6164C269.923 57.6164 272.352 55.1878 272.352 52.3875C272.352 49.3642 270.369 47.7287 266.9 47.2083ZM119.65 13.3819L116.825 12.9606C115.263 12.7376 114.644 12.3163 114.644 11.5233C114.644 10.4825 115.437 9.81337 117.345 9.81337C119.253 9.81337 120.294 10.7055 120.294 11.8207H124.779C124.779 9.6399 122.524 6.19531 117.345 6.19531C112.686 6.19531 110.282 8.69822 110.282 11.4985C110.282 14.3236 112.339 15.8352 115.833 16.3804L118.51 16.8017C120.368 17.0991 120.74 17.7434 120.74 18.5612C120.74 19.3789 119.947 20.1719 117.717 20.1719C115.486 20.1719 114.545 19.0568 114.545 18.1647H110.059C110.059 19.4037 111.422 23.79 117.717 23.79C122.673 23.79 125.101 21.3614 125.101 18.5612C125.101 15.5378 123.144 13.9023 119.65 13.3819Z" fill="white"/>
</g>
<defs>
<clipPath id="clip0_26_280">
<rect width="272.296" height="64.679" fill="white" transform="translate(0.0556641)"/>
</clipPath>
</defs>
</svg>
