<svg width="303" height="65" viewBox="0 0 303 65" fill="none" xmlns="http://www.w3.org/2000/svg">
<path d="M126.708 34.4596H111.414V21.3081H104.639V53.9088H111.414V40.6725H126.708V53.9088H133.484V21.3081H126.708V34.4596Z" fill="white"/>
<path d="M164.867 39.9681C164.867 45.2686 162.173 48.0992 157.279 48.0992C152.355 48.0992 149.647 45.188 149.647 39.7432V21.3295H142.876V39.9681C142.876 49.1389 148.096 54.397 157.188 54.397C166.371 54.397 171.643 49.0413 171.643 39.7008V21.3125H164.867V39.9681Z" fill="white"/>
<path d="M243.158 43.7236L235.574 21.3037H230.046L222.466 43.7236L215.095 21.3249H207.881L219.52 53.9086H225.126L232.719 32.503L240.307 53.9086H245.966L257.57 21.3249H250.547L243.158 43.7236Z" fill="white"/>
<path d="M269.713 39.8786H282.039V33.9416H269.713V27.2704H287.597V21.3291H263.033V53.8916H288.241V47.9503H269.713V39.8786Z" fill="white"/>
<path d="M303 21.3081H296.32V53.8664H303V21.3081Z" fill="white"/>
<path d="M189.779 21.3081L175.076 53.8918H181.986L185.029 47.1018H200.305L203.304 53.8918H210.401L195.746 21.3081H189.779ZM187.55 41.2284L192.656 29.558L197.793 41.2284H187.55Z" fill="white"/>
<path d="M81.7608 25.6197C82.2476 18.2313 74.6332 11.3945 74.6332 11.3945C74.6332 11.3945 60.517 28.098 50.2211 50.0256C50.1689 50.1402 50.1472 50.3354 50.2689 50.433C50.3514 50.5009 50.5079 50.5476 50.6644 50.4712C54.5237 48.604 70.5609 40.5365 77.3148 34.2473C77.3104 34.2515 81.5349 30.9371 81.7608 25.6197ZM63.7592 8.95436C63.7592 8.95436 61.9947 2.51656 54.8279 0.814804C54.8279 0.814804 52.7679 0.30555 50.5774 0.00424144C50.5774 0.00424144 42.5719 10.0705 46.4617 48.0438C46.4791 48.2432 46.5877 48.3154 46.6833 48.3409C46.8311 48.379 46.9702 48.3281 47.0701 48.1966C49.6343 44.5724 61.3428 27.627 63.7158 17.3231C63.7114 17.3189 65.0022 12.3324 63.7592 8.95436ZM52.7809 55.8438C52.7375 55.9287 52.7027 56.1282 52.8678 56.247C55.4494 58.0549 63.2898 63.4105 67.0666 64.4502C67.0666 64.4502 74.0508 66.7758 80.118 56.5992C80.118 56.5992 59.8216 55.9075 53.0678 55.6783C52.9722 55.6741 52.8374 55.7378 52.7809 55.8438ZM87.3108 33.267C87.3108 33.267 64.3416 45.3065 52.4723 53.1236C52.3854 53.1788 52.2724 53.2933 52.3333 53.5013C52.3637 53.6116 52.4723 53.7092 52.6158 53.7092C56.8619 53.7135 72.96 53.7347 73.3641 53.6625C73.3641 53.6625 75.4416 53.5777 78.0145 52.6143C78.0145 52.6143 83.7383 50.8362 86.7111 44.4917C86.7111 44.4917 89.3622 39.3143 87.3108 33.267ZM35.8006 53.1236C23.927 45.3108 0.96215 33.267 0.96215 33.267C-1.08922 39.3143 1.56192 44.4917 1.56192 44.4917C4.53466 50.8404 10.2585 52.6143 10.2585 52.6143C12.8271 53.5777 14.9088 53.6625 14.9088 53.6625C15.313 53.7347 31.4067 53.7177 35.6572 53.7092C35.8006 53.7092 35.9093 53.6116 35.9397 53.5013C35.9962 53.2933 35.8832 53.1788 35.8006 53.1236ZM35.2009 55.6741C28.4514 55.9033 8.15063 56.595 8.15063 56.595C14.2178 66.7716 21.202 64.446 21.202 64.446C24.9788 63.4105 32.8148 58.0549 35.4008 56.2428C35.5659 56.1282 35.5268 55.9245 35.4834 55.8396C35.4312 55.7377 35.2921 55.6741 35.2009 55.6741ZM33.4364 0.814804C26.2783 2.51656 24.5138 8.95436 24.5138 8.95436C23.2664 12.3324 24.5572 17.3188 24.5572 17.3188C26.9346 27.6227 38.643 44.5681 41.2029 48.1923C41.3028 48.3281 41.4419 48.379 41.5897 48.3366C41.6853 48.3111 41.7939 48.2432 41.8113 48.0395C45.7011 10.0662 37.6955 0 37.6955 0C35.5008 0.305552 33.4364 0.814804 33.4364 0.814804ZM13.6398 11.3945C13.6398 11.3945 6.02538 18.2313 6.51215 25.6197C6.7338 30.9371 10.9626 34.2515 10.9626 34.2515C17.7164 40.5408 33.7536 48.6082 37.613 50.4755C37.7651 50.5519 37.9215 50.5052 38.0085 50.4373C38.1302 50.3397 38.1084 50.1445 38.0563 50.0299C27.756 28.098 13.6398 11.3945 13.6398 11.3945Z" fill="white"/>
</svg>
