<svg width="413" height="87" viewBox="0 0 413 87" fill="none" xmlns="http://www.w3.org/2000/svg">
<path fill-rule="evenodd" clip-rule="evenodd" d="M0 43.5C0 67.5079 19.4921 87 43.5 87C67.5079 87 87 67.5079 87 43.5C87 19.4921 67.5079 0 43.5 0C19.4921 0 0 19.4921 0 43.5ZM1.54336 43.5C1.54336 20.2924 20.4067 1.4862 43.5572 1.4862C66.7076 1.4862 85.571 20.3495 85.571 43.5C85.571 66.5933 66.7076 85.4566 43.5572 85.4566C20.3495 85.5138 1.54336 66.7076 1.54336 43.5Z" fill="white"/>
<path fill-rule="evenodd" clip-rule="evenodd" d="M13.6057 31.6103C24.7522 24.3508 37.0419 20.0637 57.9059 23.6649C59.0492 23.0361 59.6779 22.3501 60.0209 20.9783C54.8192 19.0919 49.1602 18.4632 41.9007 18.5775C35.3271 18.749 23.5518 21.1497 17.264 24.8653L19.2075 22.4645C23.6661 19.8922 35.1556 16.4625 43.7298 16.2338C49.789 16.1767 52.9329 16.4625 60.1352 18.406C59.5065 17.2056 58.0202 16.5197 55.8481 15.6051C48.8744 12.4612 35.7844 12.2325 25.1523 16.9198C26.5242 16.0052 27.8389 15.2049 29.6109 14.4047C33.1549 12.8041 38.9283 11.2608 46.1306 11.3179C51.8468 11.3751 58.7633 13.4329 62.9361 17.5486C63.6792 18.3488 64.0794 19.2634 64.2509 19.9494C67.5662 21.6642 69.5097 23.2076 70.5386 25.0367C70.9388 26.0085 71.1674 27.0374 70.9388 28.1806C72.3107 28.9809 72.9394 29.724 73.6825 30.5814C74.1398 31.3245 74.5971 32.1819 74.6543 32.9822C74.8258 34.0111 74.8829 35.1543 73.854 36.5262C74.9972 37.0978 75.8547 38.6412 76.0262 39.3271C76.4835 41.8423 74.9973 44.243 72.768 46.1865C70.3672 48.3587 64.9368 50.8738 60.5354 52.017C51.7896 54.1892 44.13 55.1609 37.9565 56.3041C40.7003 56.9329 44.4158 57.8475 50.5892 57.8475C63.6221 57.8475 75.1116 51.7312 75.1116 51.7312C75.1116 51.7312 74.8829 52.5315 74.6543 53.2746C66.423 58.3048 53.2187 60.3626 47.674 60.134C41.9578 59.9053 37.1563 58.9907 32.469 57.5617C31.04 57.9618 29.6681 58.362 28.239 58.9907C35.3271 62.249 40.7574 62.9349 46.9309 63.4494C53.1615 63.9066 63.4506 62.4204 72.1392 59.2194C71.739 59.6195 71.5676 60.2483 71.1674 60.5913C66.7088 62.9349 57.2771 65.2785 52.5899 65.45C47.9026 65.6215 42.1865 65.45 37.1563 64.5354C32.8691 63.7352 29.3251 62.3633 25.6668 60.7628C25.038 61.2201 24.695 61.906 24.5235 62.6491C38.5281 70.0801 51.904 70.2516 67.2233 65.45L65.8514 66.8219C49.0459 73.6241 35.9559 70.9375 25.7811 66.0788C25.4381 65.9073 25.038 65.7358 24.7522 65.6215C25.7239 67.222 33.4979 72.881 42.1293 73.6241C48.1313 74.0814 55.3908 73.0525 59.7351 71.3377L57.1628 72.6524C55.0478 73.6813 49.5032 76.0249 41.7292 75.4533C31.3829 74.7102 25.5524 70.1944 22.8658 67.7936C21.6655 66.6504 21.0938 65.3928 20.6937 63.7352C18.3501 62.5348 16.921 61.2201 15.6635 59.3909C14.9204 58.2476 15.0919 57.0473 15.2634 56.0183L15.492 55.0466C14.3488 54.2463 13.2055 53.3317 12.7482 52.4743C11.7193 50.588 12.3481 49.1018 13.0912 47.7871C12.4624 47.044 11.8908 46.4152 11.6622 45.6721C11.4335 44.7575 11.3192 43.9572 11.4335 43.0998C11.605 41.5564 12.4624 40.1274 13.5485 38.8699C15.835 36.2976 19.379 34.2398 25.4953 32.2391C31.4973 30.2956 33.8409 29.9526 38.3566 28.9237C43.6155 27.7233 49.9033 27.3232 55.1622 25.4369C40.5288 22.8646 25.2666 25.2082 12.8626 33.7825L13.6057 31.6103ZM63.4506 22.5788C63.2791 23.3219 62.4789 24.1222 62.0216 24.6938C63.6221 25.0939 65.2798 25.6655 66.766 26.2943C66.5373 24.8081 64.9368 23.4362 63.4506 22.5788ZM18.3501 51.8455C17.3783 51.2739 16.7496 50.931 16.0065 50.4165C15.6063 51.3311 16.4066 52.36 17.2068 52.8173C17.5498 52.4743 17.9499 52.1314 18.3501 51.8455ZM67.7377 32.6392C68.7666 33.0965 69.7384 33.5538 70.653 34.1826C71.2817 32.8679 70.8816 32.0676 69.5097 30.9244C69.0524 31.6103 68.3665 32.1819 67.7377 32.6392ZM64.5938 34.5827C62.4789 35.5545 59.335 36.5834 54.9907 37.7266C51.4467 38.6412 42.6438 39.8988 33.1549 41.9566C30.1825 42.5854 22.0656 44.5289 18.1214 47.8442C19.2647 48.7588 19.8934 48.9875 21.2082 49.6162C22.8087 48.5873 25.0952 47.6156 28.4105 46.701C34.241 45.1576 38.5281 44.5289 43.787 43.6143C48.9887 42.814 58.649 40.8133 64.0794 38.8699C65.8514 38.2411 67.4519 37.4408 68.7095 36.4691C68.2522 36.1261 64.7653 34.4112 64.5938 34.5827ZM23.8376 57.1616C24.6379 56.7043 25.6096 56.1898 26.6385 55.7897C25.0951 55.1609 23.5518 54.475 22.0084 53.789C21.2653 54.1892 20.6365 54.7036 20.1221 55.1609C21.4368 55.7897 22.58 56.5328 23.8376 57.1616ZM18.8645 57.6189C18.8645 58.5906 19.4361 59.5052 20.7509 60.5341C20.9224 59.9625 21.151 59.6195 21.5511 59.1622C20.5222 58.7049 19.722 58.1333 18.8645 57.6189ZM26.1812 39.6701C36.7561 36.5834 47.9026 35.6116 59.2206 32.6392C54.762 31.4388 52.4184 30.9244 47.7312 31.496C40.9289 32.2963 33.4979 33.7825 27.0958 35.6116C24.5807 36.3547 11.4335 40.0702 15.2062 45.3291C15.2634 45.4434 17.5498 42.2995 26.1812 39.6701ZM65.9657 28.8666C64.2509 28.0663 62.0787 27.3232 59.7351 26.6944C58.7062 27.4947 57.563 28.2378 55.7909 28.8666C58.5919 29.3239 60.8212 30.1813 63.222 30.8672C63.6792 31.0959 65.6227 29.2667 65.9657 28.8666ZM71.2246 39.0413C70.8816 39.27 70.5958 39.613 70.1957 39.8416C67.7949 41.7279 63.9651 43.157 58.7062 44.586C47.7883 47.5013 39.8429 47.9586 30.8113 50.1879C29.0393 50.588 27.2673 51.2168 25.5524 51.9027C27.2673 52.8173 29.0393 53.5032 30.8685 54.2463C34.5268 53.2174 36.2988 52.703 41.6149 51.8455C43.6155 51.5026 49.8461 50.4165 54.3619 49.4448C62.4789 47.7871 74.3685 43.9572 71.2246 39.0413Z" fill="white"/>
<path fill-rule="evenodd" clip-rule="evenodd" d="M128.555 62.3066H137.758L138.787 56.0188H144.674L145.703 62.3066H154.906L147.247 24.0083H136.043L128.555 62.3066ZM141.816 35.7836L143.531 47.4446H140.216L141.816 35.7836Z" fill="white"/>
<path fill-rule="evenodd" clip-rule="evenodd" d="M163.37 39.4421C164.799 39.1563 167.428 38.2417 167.428 35.3836C167.428 32.0683 164.341 31.8396 163.541 31.8396C162.512 31.8396 158.339 32.8685 158.339 32.8685L158.282 24.6944C161.426 23.9513 163.655 23.7227 166.285 23.7227C173.773 23.7227 177.26 28.81 177.26 33.7259C177.26 38.5847 174.288 41.4999 171.544 42.6432V43.0433C174.23 43.8436 177.889 46.3587 177.889 52.1892C177.889 59.3915 172.687 63.3357 165.999 63.3357C162.398 63.3357 160.111 62.8784 157.311 61.3922L157.482 53.4467C160.111 54.4756 161.883 54.5899 163.655 54.5899C166.628 54.5899 167.771 52.475 167.771 50.9316C167.771 48.8166 166.342 47.3876 163.198 47.3876H159.483V39.3849H163.37V39.4421Z" fill="white"/>
<path fill-rule="evenodd" clip-rule="evenodd" d="M205.782 62.3066H196.636V33.1542H190.349V62.3066H181.774V24.0083H205.782V62.3066Z" fill="white"/>
<path fill-rule="evenodd" clip-rule="evenodd" d="M210.926 62.3066H219.5V49.731H222.53C231.332 49.731 234.076 41.8427 234.076 36.8125C234.076 31.8394 230.99 24.0083 222.53 24.0083H210.926V62.3066ZM219.5 32.5825H221.558C223.559 32.5825 224.759 33.7829 224.759 36.8697C224.759 40.9281 222.701 41.1568 221.558 41.1568H219.5V32.5825Z" fill="white"/>
<path fill-rule="evenodd" clip-rule="evenodd" d="M250.312 62.8774C260.83 62.8774 264.317 53.1027 264.317 43.3281C264.317 33.5534 260.773 23.7788 250.312 23.7788C239.794 23.7788 236.308 33.5534 236.308 43.3281C236.308 53.1027 239.852 62.8774 250.312 62.8774ZM250.312 53.6743C247.225 53.6743 245.625 50.016 245.625 43.3281C245.625 36.6402 247.225 32.9818 250.312 32.9818C253.456 32.9818 254.999 36.6402 254.999 43.3281C255.057 50.016 253.456 53.6743 250.312 53.6743Z" fill="white"/>
<path fill-rule="evenodd" clip-rule="evenodd" d="M302.9 62.3066H313.475C315.705 62.3066 325.079 61.3348 325.136 50.074C325.136 40.528 317.82 38.8703 313.132 38.8703H311.532V33.7258H323.536V24.0083H302.958V62.3066H302.9ZM311.532 54.8756V46.3013H312.789C313.818 46.3013 316.562 46.3585 316.562 50.2455C316.562 54.2468 313.761 54.8756 312.789 54.8756H311.532Z" fill="white"/>
<path fill-rule="evenodd" clip-rule="evenodd" d="M380.696 62.3066H372.122V46.873H365.834V62.3066H357.26V24.0083H365.834V38.2987H372.122V24.0083H380.696V62.3066Z" fill="white"/>
<path fill-rule="evenodd" clip-rule="evenodd" d="M411.166 24.0083L404.364 42.2429L412.138 62.3066H401.963L397.047 46.873H394.989V62.3066H386.415V24.0083H394.989V38.2987H396.818L401.792 24.0083H411.166Z" fill="white"/>
<path fill-rule="evenodd" clip-rule="evenodd" d="M111.465 24.0083H129.757V33.7258H120.611V62.3066H111.465V24.0083Z" fill="white"/>
<path fill-rule="evenodd" clip-rule="evenodd" d="M288.093 62.3066V39.099L282.663 45.7297L277.232 39.099V62.3066H268.658V24.0083H276.089L282.663 33.0398L289.236 24.0083H296.667V62.3066H288.093Z" fill="white"/>
<path fill-rule="evenodd" clip-rule="evenodd" d="M326.851 62.8789H335.711L336.797 56.0195H343.256L344.456 62.8789H353.259L345.6 24.5806H334.396L326.851 62.8789ZM340.112 35.7842L341.827 47.4452H338.512L340.112 35.7842Z" fill="white"/>
</svg>
